G04 #@! TF.GenerationSoftware,KiCad,Pcbnew,9.0.1*
G04 #@! TF.CreationDate,2025-10-21T12:51:46+03:00*
G04 #@! TF.ProjectId,Twyst-Hardware,54777973-742d-4486-9172-64776172652e,rev?*
G04 #@! TF.SameCoordinates,Original*
G04 #@! TF.FileFunction,Soldermask,Top*
G04 #@! TF.FilePolarity,Negative*
%FSLAX46Y46*%
G04 Gerber Fmt 4.6, Leading zero omitted, Abs format (unit mm)*
G04 Created by KiCad (PCBNEW 9.0.1) date 2025-10-21 12:51:46*
%MOMM*%
%LPD*%
G01*
G04 APERTURE LIST*
G04 Aperture macros list*
%AMRoundRect*
0 Rectangle with rounded corners*
0 $1 Rounding radius*
0 $2 $3 $4 $5 $6 $7 $8 $9 X,Y pos of 4 corners*
0 Add a 4 corners polygon primitive as box body*
4,1,4,$2,$3,$4,$5,$6,$7,$8,$9,$2,$3,0*
0 Add four circle primitives for the rounded corners*
1,1,$1+$1,$2,$3*
1,1,$1+$1,$4,$5*
1,1,$1+$1,$6,$7*
1,1,$1+$1,$8,$9*
0 Add four rect primitives between the rounded corners*
20,1,$1+$1,$2,$3,$4,$5,0*
20,1,$1+$1,$4,$5,$6,$7,0*
20,1,$1+$1,$6,$7,$8,$9,0*
20,1,$1+$1,$8,$9,$2,$3,0*%
%AMHorizOval*
0 Thick line with rounded ends*
0 $1 width*
0 $2 $3 position (X,Y) of the first rounded end (center of the circle)*
0 $4 $5 position (X,Y) of the second rounded end (center of the circle)*
0 Add line between two ends*
20,1,$1,$2,$3,$4,$5,0*
0 Add two circle primitives to create the rounded ends*
1,1,$1,$2,$3*
1,1,$1,$4,$5*%
%AMRotRect*
0 Rectangle, with rotation*
0 The origin of the aperture is its center*
0 $1 length*
0 $2 width*
0 $3 Rotation angle, in degrees counterclockwise*
0 Add horizontal line*
21,1,$1,$2,0,0,$3*%
%AMFreePoly0*
4,1,13,0.335355,0.685355,0.350000,0.650000,0.350000,-0.650000,0.335355,-0.685355,0.300000,-0.700000,-0.300000,-0.700000,-0.335355,-0.685355,-0.350000,-0.650000,-0.350000,0.650000,-0.335355,0.685355,-0.300000,0.700000,0.300000,0.700000,0.335355,0.685355,0.335355,0.685355,$1*%
G04 Aperture macros list end*
%ADD10R,0.680000X0.280000*%
%ADD11R,0.280000X0.680000*%
%ADD12RoundRect,0.159000X0.189000X-0.159000X0.189000X0.159000X-0.189000X0.159000X-0.189000X-0.159000X0*%
%ADD13C,0.750000*%
%ADD14O,2.000000X1.200000*%
%ADD15O,1.800000X1.200000*%
%ADD16FreePoly0,90.000000*%
%ADD17R,1.300000X0.300000*%
%ADD18R,1.000000X0.600000*%
%ADD19C,0.200000*%
%ADD20RoundRect,0.159000X-0.159000X-0.189000X0.159000X-0.189000X0.159000X0.189000X-0.159000X0.189000X0*%
%ADD21RoundRect,0.147500X0.147500X0.172500X-0.147500X0.172500X-0.147500X-0.172500X0.147500X-0.172500X0*%
%ADD22RoundRect,0.159000X0.159000X0.189000X-0.159000X0.189000X-0.159000X-0.189000X0.159000X-0.189000X0*%
%ADD23RotRect,1.000000X0.800000X45.000000*%
%ADD24C,0.900000*%
%ADD25RotRect,0.700000X1.500000X45.000000*%
%ADD26RoundRect,0.147500X-0.147500X-0.172500X0.147500X-0.172500X0.147500X0.172500X-0.147500X0.172500X0*%
%ADD27R,0.750000X0.300000*%
%ADD28R,1.600000X1.600000*%
%ADD29R,1.200000X1.200000*%
%ADD30RoundRect,0.150000X-0.587500X-0.150000X0.587500X-0.150000X0.587500X0.150000X-0.587500X0.150000X0*%
%ADD31RoundRect,0.159000X-0.189000X0.159000X-0.189000X-0.159000X0.189000X-0.159000X0.189000X0.159000X0*%
%ADD32RoundRect,0.250000X0.689429X0.194454X0.194454X0.689429X-0.689429X-0.194454X-0.194454X-0.689429X0*%
%ADD33HorizOval,1.200000X0.194454X0.194454X-0.194454X-0.194454X0*%
%ADD34C,1.552000*%
G04 APERTURE END LIST*
D10*
G04 #@! TO.C,U4*
X143312000Y-102500000D03*
X143312000Y-103000000D03*
X143312000Y-103500000D03*
X143312000Y-104000000D03*
D11*
X144072000Y-104260000D03*
X144572000Y-104260000D03*
X145072000Y-104260000D03*
D10*
X145832000Y-104000000D03*
X145832000Y-103500000D03*
X145832000Y-103000000D03*
X145832000Y-102500000D03*
D11*
X145072000Y-102240000D03*
X144572000Y-102240000D03*
X144072000Y-102240000D03*
G04 #@! TD*
D12*
G04 #@! TO.C,R6*
X143750000Y-99750000D03*
X143750000Y-98750000D03*
G04 #@! TD*
G04 #@! TO.C,R7*
X145100000Y-99750000D03*
X145100000Y-98750000D03*
G04 #@! TD*
D13*
G04 #@! TO.C,USBC1*
X163260000Y-107900000D03*
X163260000Y-102100000D03*
D14*
X162760000Y-100670000D03*
D15*
X166940000Y-100670000D03*
X166940000Y-109330000D03*
D14*
X162760000Y-109330000D03*
D16*
X162000000Y-108200000D03*
X162000000Y-107400000D03*
D17*
X162000000Y-106250000D03*
X162000000Y-105250000D03*
X162000000Y-104750000D03*
X162000000Y-103750000D03*
D16*
X162000000Y-101800000D03*
X162000000Y-102600000D03*
D17*
X162000000Y-103250000D03*
X162000000Y-104250000D03*
X162000000Y-105750000D03*
X162000000Y-106750000D03*
G04 #@! TD*
D18*
G04 #@! TO.C,U2*
X157650000Y-110550000D03*
X157650000Y-111500000D03*
X157650000Y-112450000D03*
X159850000Y-112450000D03*
X159850000Y-110550000D03*
G04 #@! TD*
D19*
G04 #@! TO.C,U5*
X144850000Y-93430000D03*
X144850000Y-94000000D03*
X144850000Y-94570000D03*
X144560000Y-93720000D03*
X144560000Y-94280000D03*
X144280000Y-93430000D03*
X144280000Y-94570000D03*
X144000000Y-93720000D03*
X144000000Y-94280000D03*
X143710000Y-93430000D03*
X143710000Y-94000000D03*
X143710000Y-94570000D03*
G04 #@! TD*
D20*
G04 #@! TO.C,C3*
X157250000Y-113500000D03*
X158250000Y-113500000D03*
G04 #@! TD*
D21*
G04 #@! TO.C,D1*
X157455000Y-99000000D03*
X156485000Y-99000000D03*
G04 #@! TD*
D22*
G04 #@! TO.C,R2*
X157470000Y-103000000D03*
X156470000Y-103000000D03*
G04 #@! TD*
D23*
G04 #@! TO.C,SW1*
X158117517Y-118279396D03*
X159680223Y-119842102D03*
D24*
X160422685Y-117544005D03*
X162544005Y-115422685D03*
D23*
X163279396Y-113117517D03*
X164842102Y-114680223D03*
D25*
X158647847Y-116829828D03*
X160769167Y-114708507D03*
X161829828Y-113647847D03*
G04 #@! TD*
D26*
G04 #@! TO.C,D2*
X158500000Y-103000000D03*
X159470000Y-103000000D03*
G04 #@! TD*
D12*
G04 #@! TO.C,R3*
X155220000Y-102500000D03*
X155220000Y-101500000D03*
G04 #@! TD*
D27*
G04 #@! TO.C,U1*
X159970000Y-101750000D03*
X159970000Y-101250000D03*
X159970000Y-100750000D03*
X159970000Y-100250000D03*
X156970000Y-100250000D03*
X156970000Y-100750000D03*
X156970000Y-101250000D03*
X156970000Y-101750000D03*
D28*
X158470000Y-101000000D03*
G04 #@! TD*
D29*
G04 #@! TO.C,D3*
X159750000Y-107150000D03*
X159750000Y-104350000D03*
G04 #@! TD*
D30*
G04 #@! TO.C,Q1*
X155312500Y-105050000D03*
X155312500Y-106950000D03*
X157187500Y-106000000D03*
G04 #@! TD*
D12*
G04 #@! TO.C,C1*
X155250000Y-110000000D03*
X155250000Y-109000000D03*
G04 #@! TD*
D20*
G04 #@! TO.C,C2*
X159970000Y-99250000D03*
X160970000Y-99250000D03*
G04 #@! TD*
D31*
G04 #@! TO.C,R5*
X156500000Y-109000000D03*
X156500000Y-110000000D03*
G04 #@! TD*
D12*
G04 #@! TO.C,R1*
X160470000Y-109500000D03*
X160470000Y-108500000D03*
G04 #@! TD*
D32*
G04 #@! TO.C,J1*
X160474696Y-95439519D03*
D33*
X159060482Y-94025305D03*
G04 #@! TD*
D31*
G04 #@! TO.C,R4*
X155220000Y-99000000D03*
X155220000Y-100000000D03*
G04 #@! TD*
D34*
G04 #@! TO.C,U6*
X135500000Y-112620000D03*
X138040000Y-112620000D03*
X140580000Y-112620000D03*
X143120000Y-112620000D03*
X145660000Y-112620000D03*
X148200000Y-112620000D03*
X150740000Y-112620000D03*
X153280000Y-112620000D03*
X153280000Y-97380000D03*
X150740000Y-97380000D03*
X148200000Y-97380000D03*
X145660000Y-97380000D03*
X143120000Y-97380000D03*
X140580000Y-97380000D03*
X138040000Y-97380000D03*
X135500000Y-97380000D03*
G04 #@! TD*
M02*
