G04 #@! TF.GenerationSoftware,KiCad,Pcbnew,9.0.1*
G04 #@! TF.CreationDate,2025-10-21T12:51:46+03:00*
G04 #@! TF.ProjectId,Twyst-Hardware,54777973-742d-4486-9172-64776172652e,rev?*
G04 #@! TF.SameCoordinates,Original*
G04 #@! TF.FileFunction,Legend,Top*
G04 #@! TF.FilePolarity,Positive*
%FSLAX46Y46*%
G04 Gerber Fmt 4.6, Leading zero omitted, Abs format (unit mm)*
G04 Created by KiCad (PCBNEW 9.0.1) date 2025-10-21 12:51:46*
%MOMM*%
%LPD*%
G01*
G04 APERTURE LIST*
G04 Aperture macros list*
%AMRoundRect*
0 Rectangle with rounded corners*
0 $1 Rounding radius*
0 $2 $3 $4 $5 $6 $7 $8 $9 X,Y pos of 4 corners*
0 Add a 4 corners polygon primitive as box body*
4,1,4,$2,$3,$4,$5,$6,$7,$8,$9,$2,$3,0*
0 Add four circle primitives for the rounded corners*
1,1,$1+$1,$2,$3*
1,1,$1+$1,$4,$5*
1,1,$1+$1,$6,$7*
1,1,$1+$1,$8,$9*
0 Add four rect primitives between the rounded corners*
20,1,$1+$1,$2,$3,$4,$5,0*
20,1,$1+$1,$4,$5,$6,$7,0*
20,1,$1+$1,$6,$7,$8,$9,0*
20,1,$1+$1,$8,$9,$2,$3,0*%
%AMHorizOval*
0 Thick line with rounded ends*
0 $1 width*
0 $2 $3 position (X,Y) of the first rounded end (center of the circle)*
0 $4 $5 position (X,Y) of the second rounded end (center of the circle)*
0 Add line between two ends*
20,1,$1,$2,$3,$4,$5,0*
0 Add two circle primitives to create the rounded ends*
1,1,$1,$2,$3*
1,1,$1,$4,$5*%
%AMRotRect*
0 Rectangle, with rotation*
0 The origin of the aperture is its center*
0 $1 length*
0 $2 width*
0 $3 Rotation angle, in degrees counterclockwise*
0 Add horizontal line*
21,1,$1,$2,0,0,$3*%
%AMFreePoly0*
4,1,13,0.335355,0.685355,0.350000,0.650000,0.350000,-0.650000,0.335355,-0.685355,0.300000,-0.700000,-0.300000,-0.700000,-0.335355,-0.685355,-0.350000,-0.650000,-0.350000,0.650000,-0.335355,0.685355,-0.300000,0.700000,0.300000,0.700000,0.335355,0.685355,0.335355,0.685355,$1*%
G04 Aperture macros list end*
%ADD10C,0.150000*%
%ADD11C,0.250000*%
%ADD12C,0.300000*%
%ADD13C,0.100000*%
%ADD14C,0.120000*%
%ADD15R,0.680000X0.280000*%
%ADD16R,0.280000X0.680000*%
%ADD17RoundRect,0.159000X0.189000X-0.159000X0.189000X0.159000X-0.189000X0.159000X-0.189000X-0.159000X0*%
%ADD18C,0.750000*%
%ADD19O,2.000000X1.200000*%
%ADD20O,1.800000X1.200000*%
%ADD21FreePoly0,90.000000*%
%ADD22R,1.300000X0.300000*%
%ADD23R,1.000000X0.600000*%
%ADD24C,0.200000*%
%ADD25RoundRect,0.159000X-0.159000X-0.189000X0.159000X-0.189000X0.159000X0.189000X-0.159000X0.189000X0*%
%ADD26RoundRect,0.147500X0.147500X0.172500X-0.147500X0.172500X-0.147500X-0.172500X0.147500X-0.172500X0*%
%ADD27RoundRect,0.159000X0.159000X0.189000X-0.159000X0.189000X-0.159000X-0.189000X0.159000X-0.189000X0*%
%ADD28RotRect,1.000000X0.800000X45.000000*%
%ADD29C,0.900000*%
%ADD30RotRect,0.700000X1.500000X45.000000*%
%ADD31RoundRect,0.147500X-0.147500X-0.172500X0.147500X-0.172500X0.147500X0.172500X-0.147500X0.172500X0*%
%ADD32R,0.750000X0.300000*%
%ADD33R,1.600000X1.600000*%
%ADD34R,1.200000X1.200000*%
%ADD35RoundRect,0.150000X-0.587500X-0.150000X0.587500X-0.150000X0.587500X0.150000X-0.587500X0.150000X0*%
%ADD36RoundRect,0.159000X-0.189000X0.159000X-0.189000X-0.159000X0.189000X-0.159000X0.189000X0.159000X0*%
%ADD37RoundRect,0.250000X0.689429X0.194454X0.194454X0.689429X-0.689429X-0.194454X-0.194454X-0.689429X0*%
%ADD38HorizOval,1.200000X0.194454X0.194454X-0.194454X-0.194454X0*%
%ADD39C,1.552000*%
G04 APERTURE END LIST*
D10*
X143810095Y-97694819D02*
X143810095Y-98504342D01*
X143810095Y-98504342D02*
X143857714Y-98599580D01*
X143857714Y-98599580D02*
X143905333Y-98647200D01*
X143905333Y-98647200D02*
X144000571Y-98694819D01*
X144000571Y-98694819D02*
X144191047Y-98694819D01*
X144191047Y-98694819D02*
X144286285Y-98647200D01*
X144286285Y-98647200D02*
X144333904Y-98599580D01*
X144333904Y-98599580D02*
X144381523Y-98504342D01*
X144381523Y-98504342D02*
X144381523Y-97694819D01*
X145286285Y-98028152D02*
X145286285Y-98694819D01*
X145048190Y-97647200D02*
X144810095Y-98361485D01*
X144810095Y-98361485D02*
X145429142Y-98361485D01*
X157454819Y-107238094D02*
X158264342Y-107238094D01*
X158264342Y-107238094D02*
X158359580Y-107190475D01*
X158359580Y-107190475D02*
X158407200Y-107142856D01*
X158407200Y-107142856D02*
X158454819Y-107047618D01*
X158454819Y-107047618D02*
X158454819Y-106857142D01*
X158454819Y-106857142D02*
X158407200Y-106761904D01*
X158407200Y-106761904D02*
X158359580Y-106714285D01*
X158359580Y-106714285D02*
X158264342Y-106666666D01*
X158264342Y-106666666D02*
X157454819Y-106666666D01*
X158407200Y-106238094D02*
X158454819Y-106095237D01*
X158454819Y-106095237D02*
X158454819Y-105857142D01*
X158454819Y-105857142D02*
X158407200Y-105761904D01*
X158407200Y-105761904D02*
X158359580Y-105714285D01*
X158359580Y-105714285D02*
X158264342Y-105666666D01*
X158264342Y-105666666D02*
X158169104Y-105666666D01*
X158169104Y-105666666D02*
X158073866Y-105714285D01*
X158073866Y-105714285D02*
X158026247Y-105761904D01*
X158026247Y-105761904D02*
X157978628Y-105857142D01*
X157978628Y-105857142D02*
X157931009Y-106047618D01*
X157931009Y-106047618D02*
X157883390Y-106142856D01*
X157883390Y-106142856D02*
X157835771Y-106190475D01*
X157835771Y-106190475D02*
X157740533Y-106238094D01*
X157740533Y-106238094D02*
X157645295Y-106238094D01*
X157645295Y-106238094D02*
X157550057Y-106190475D01*
X157550057Y-106190475D02*
X157502438Y-106142856D01*
X157502438Y-106142856D02*
X157454819Y-106047618D01*
X157454819Y-106047618D02*
X157454819Y-105809523D01*
X157454819Y-105809523D02*
X157502438Y-105666666D01*
X157931009Y-104904761D02*
X157978628Y-104761904D01*
X157978628Y-104761904D02*
X158026247Y-104714285D01*
X158026247Y-104714285D02*
X158121485Y-104666666D01*
X158121485Y-104666666D02*
X158264342Y-104666666D01*
X158264342Y-104666666D02*
X158359580Y-104714285D01*
X158359580Y-104714285D02*
X158407200Y-104761904D01*
X158407200Y-104761904D02*
X158454819Y-104857142D01*
X158454819Y-104857142D02*
X158454819Y-105238094D01*
X158454819Y-105238094D02*
X157454819Y-105238094D01*
X157454819Y-105238094D02*
X157454819Y-104904761D01*
X157454819Y-104904761D02*
X157502438Y-104809523D01*
X157502438Y-104809523D02*
X157550057Y-104761904D01*
X157550057Y-104761904D02*
X157645295Y-104714285D01*
X157645295Y-104714285D02*
X157740533Y-104714285D01*
X157740533Y-104714285D02*
X157835771Y-104761904D01*
X157835771Y-104761904D02*
X157883390Y-104809523D01*
X157883390Y-104809523D02*
X157931009Y-104904761D01*
X157931009Y-104904761D02*
X157931009Y-105238094D01*
X158359580Y-103666666D02*
X158407200Y-103714285D01*
X158407200Y-103714285D02*
X158454819Y-103857142D01*
X158454819Y-103857142D02*
X158454819Y-103952380D01*
X158454819Y-103952380D02*
X158407200Y-104095237D01*
X158407200Y-104095237D02*
X158311961Y-104190475D01*
X158311961Y-104190475D02*
X158216723Y-104238094D01*
X158216723Y-104238094D02*
X158026247Y-104285713D01*
X158026247Y-104285713D02*
X157883390Y-104285713D01*
X157883390Y-104285713D02*
X157692914Y-104238094D01*
X157692914Y-104238094D02*
X157597676Y-104190475D01*
X157597676Y-104190475D02*
X157502438Y-104095237D01*
X157502438Y-104095237D02*
X157454819Y-103952380D01*
X157454819Y-103952380D02*
X157454819Y-103857142D01*
X157454819Y-103857142D02*
X157502438Y-103714285D01*
X157502438Y-103714285D02*
X157550057Y-103666666D01*
X158454819Y-102714285D02*
X158454819Y-103285713D01*
X158454819Y-102999999D02*
X157454819Y-102999999D01*
X157454819Y-102999999D02*
X157597676Y-103095237D01*
X157597676Y-103095237D02*
X157692914Y-103190475D01*
X157692914Y-103190475D02*
X157740533Y-103285713D01*
X157988095Y-115904819D02*
X157988095Y-116714342D01*
X157988095Y-116714342D02*
X158035714Y-116809580D01*
X158035714Y-116809580D02*
X158083333Y-116857200D01*
X158083333Y-116857200D02*
X158178571Y-116904819D01*
X158178571Y-116904819D02*
X158369047Y-116904819D01*
X158369047Y-116904819D02*
X158464285Y-116857200D01*
X158464285Y-116857200D02*
X158511904Y-116809580D01*
X158511904Y-116809580D02*
X158559523Y-116714342D01*
X158559523Y-116714342D02*
X158559523Y-115904819D01*
X158988095Y-116000057D02*
X159035714Y-115952438D01*
X159035714Y-115952438D02*
X159130952Y-115904819D01*
X159130952Y-115904819D02*
X159369047Y-115904819D01*
X159369047Y-115904819D02*
X159464285Y-115952438D01*
X159464285Y-115952438D02*
X159511904Y-116000057D01*
X159511904Y-116000057D02*
X159559523Y-116095295D01*
X159559523Y-116095295D02*
X159559523Y-116190533D01*
X159559523Y-116190533D02*
X159511904Y-116333390D01*
X159511904Y-116333390D02*
X158940476Y-116904819D01*
X158940476Y-116904819D02*
X159559523Y-116904819D01*
X143518095Y-88884819D02*
X143518095Y-89694342D01*
X143518095Y-89694342D02*
X143565714Y-89789580D01*
X143565714Y-89789580D02*
X143613333Y-89837200D01*
X143613333Y-89837200D02*
X143708571Y-89884819D01*
X143708571Y-89884819D02*
X143899047Y-89884819D01*
X143899047Y-89884819D02*
X143994285Y-89837200D01*
X143994285Y-89837200D02*
X144041904Y-89789580D01*
X144041904Y-89789580D02*
X144089523Y-89694342D01*
X144089523Y-89694342D02*
X144089523Y-88884819D01*
X145041904Y-88884819D02*
X144565714Y-88884819D01*
X144565714Y-88884819D02*
X144518095Y-89361009D01*
X144518095Y-89361009D02*
X144565714Y-89313390D01*
X144565714Y-89313390D02*
X144660952Y-89265771D01*
X144660952Y-89265771D02*
X144899047Y-89265771D01*
X144899047Y-89265771D02*
X144994285Y-89313390D01*
X144994285Y-89313390D02*
X145041904Y-89361009D01*
X145041904Y-89361009D02*
X145089523Y-89456247D01*
X145089523Y-89456247D02*
X145089523Y-89694342D01*
X145089523Y-89694342D02*
X145041904Y-89789580D01*
X145041904Y-89789580D02*
X144994285Y-89837200D01*
X144994285Y-89837200D02*
X144899047Y-89884819D01*
X144899047Y-89884819D02*
X144660952Y-89884819D01*
X144660952Y-89884819D02*
X144565714Y-89837200D01*
X144565714Y-89837200D02*
X144518095Y-89789580D01*
X156231905Y-100624819D02*
X156231905Y-99624819D01*
X156231905Y-99624819D02*
X156470000Y-99624819D01*
X156470000Y-99624819D02*
X156612857Y-99672438D01*
X156612857Y-99672438D02*
X156708095Y-99767676D01*
X156708095Y-99767676D02*
X156755714Y-99862914D01*
X156755714Y-99862914D02*
X156803333Y-100053390D01*
X156803333Y-100053390D02*
X156803333Y-100196247D01*
X156803333Y-100196247D02*
X156755714Y-100386723D01*
X156755714Y-100386723D02*
X156708095Y-100481961D01*
X156708095Y-100481961D02*
X156612857Y-100577200D01*
X156612857Y-100577200D02*
X156470000Y-100624819D01*
X156470000Y-100624819D02*
X156231905Y-100624819D01*
X157755714Y-100624819D02*
X157184286Y-100624819D01*
X157470000Y-100624819D02*
X157470000Y-99624819D01*
X157470000Y-99624819D02*
X157374762Y-99767676D01*
X157374762Y-99767676D02*
X157279524Y-99862914D01*
X157279524Y-99862914D02*
X157184286Y-99910533D01*
X158332383Y-115218000D02*
X158467070Y-115150657D01*
X158467070Y-115150657D02*
X158635428Y-114982298D01*
X158635428Y-114982298D02*
X158669100Y-114881283D01*
X158669100Y-114881283D02*
X158669100Y-114813939D01*
X158669100Y-114813939D02*
X158635428Y-114712924D01*
X158635428Y-114712924D02*
X158568085Y-114645580D01*
X158568085Y-114645580D02*
X158467070Y-114611909D01*
X158467070Y-114611909D02*
X158399726Y-114611909D01*
X158399726Y-114611909D02*
X158298711Y-114645580D01*
X158298711Y-114645580D02*
X158130352Y-114746596D01*
X158130352Y-114746596D02*
X158029337Y-114780267D01*
X158029337Y-114780267D02*
X157961993Y-114780267D01*
X157961993Y-114780267D02*
X157860978Y-114746596D01*
X157860978Y-114746596D02*
X157793635Y-114679252D01*
X157793635Y-114679252D02*
X157759963Y-114578237D01*
X157759963Y-114578237D02*
X157759963Y-114510893D01*
X157759963Y-114510893D02*
X157793635Y-114409878D01*
X157793635Y-114409878D02*
X157961993Y-114241519D01*
X157961993Y-114241519D02*
X158096680Y-114174176D01*
X158298711Y-113904802D02*
X159174177Y-114443550D01*
X159174177Y-114443550D02*
X158803787Y-113803786D01*
X158803787Y-113803786D02*
X159443551Y-114174176D01*
X159443551Y-114174176D02*
X158904803Y-113298710D01*
X160251672Y-113366054D02*
X159847611Y-113770115D01*
X160049642Y-113568084D02*
X159342535Y-112860978D01*
X159342535Y-112860978D02*
X159376207Y-113029336D01*
X159376207Y-113029336D02*
X159376207Y-113164023D01*
X159376207Y-113164023D02*
X159342535Y-113265039D01*
X158246905Y-102284819D02*
X158246905Y-101284819D01*
X158246905Y-101284819D02*
X158485000Y-101284819D01*
X158485000Y-101284819D02*
X158627857Y-101332438D01*
X158627857Y-101332438D02*
X158723095Y-101427676D01*
X158723095Y-101427676D02*
X158770714Y-101522914D01*
X158770714Y-101522914D02*
X158818333Y-101713390D01*
X158818333Y-101713390D02*
X158818333Y-101856247D01*
X158818333Y-101856247D02*
X158770714Y-102046723D01*
X158770714Y-102046723D02*
X158723095Y-102141961D01*
X158723095Y-102141961D02*
X158627857Y-102237200D01*
X158627857Y-102237200D02*
X158485000Y-102284819D01*
X158485000Y-102284819D02*
X158246905Y-102284819D01*
X159199286Y-101380057D02*
X159246905Y-101332438D01*
X159246905Y-101332438D02*
X159342143Y-101284819D01*
X159342143Y-101284819D02*
X159580238Y-101284819D01*
X159580238Y-101284819D02*
X159675476Y-101332438D01*
X159675476Y-101332438D02*
X159723095Y-101380057D01*
X159723095Y-101380057D02*
X159770714Y-101475295D01*
X159770714Y-101475295D02*
X159770714Y-101570533D01*
X159770714Y-101570533D02*
X159723095Y-101713390D01*
X159723095Y-101713390D02*
X159151667Y-102284819D01*
X159151667Y-102284819D02*
X159770714Y-102284819D01*
X133484819Y-107586904D02*
X134294342Y-107586904D01*
X134294342Y-107586904D02*
X134389580Y-107539285D01*
X134389580Y-107539285D02*
X134437200Y-107491666D01*
X134437200Y-107491666D02*
X134484819Y-107396428D01*
X134484819Y-107396428D02*
X134484819Y-107205952D01*
X134484819Y-107205952D02*
X134437200Y-107110714D01*
X134437200Y-107110714D02*
X134389580Y-107063095D01*
X134389580Y-107063095D02*
X134294342Y-107015476D01*
X134294342Y-107015476D02*
X133484819Y-107015476D01*
X134484819Y-106015476D02*
X134484819Y-106586904D01*
X134484819Y-106301190D02*
X133484819Y-106301190D01*
X133484819Y-106301190D02*
X133627676Y-106396428D01*
X133627676Y-106396428D02*
X133722914Y-106491666D01*
X133722914Y-106491666D02*
X133770533Y-106586904D01*
X158204819Y-106488094D02*
X157204819Y-106488094D01*
X157204819Y-106488094D02*
X157204819Y-106249999D01*
X157204819Y-106249999D02*
X157252438Y-106107142D01*
X157252438Y-106107142D02*
X157347676Y-106011904D01*
X157347676Y-106011904D02*
X157442914Y-105964285D01*
X157442914Y-105964285D02*
X157633390Y-105916666D01*
X157633390Y-105916666D02*
X157776247Y-105916666D01*
X157776247Y-105916666D02*
X157966723Y-105964285D01*
X157966723Y-105964285D02*
X158061961Y-106011904D01*
X158061961Y-106011904D02*
X158157200Y-106107142D01*
X158157200Y-106107142D02*
X158204819Y-106249999D01*
X158204819Y-106249999D02*
X158204819Y-106488094D01*
X157204819Y-105583332D02*
X157204819Y-104964285D01*
X157204819Y-104964285D02*
X157585771Y-105297618D01*
X157585771Y-105297618D02*
X157585771Y-105154761D01*
X157585771Y-105154761D02*
X157633390Y-105059523D01*
X157633390Y-105059523D02*
X157681009Y-105011904D01*
X157681009Y-105011904D02*
X157776247Y-104964285D01*
X157776247Y-104964285D02*
X158014342Y-104964285D01*
X158014342Y-104964285D02*
X158109580Y-105011904D01*
X158109580Y-105011904D02*
X158157200Y-105059523D01*
X158157200Y-105059523D02*
X158204819Y-105154761D01*
X158204819Y-105154761D02*
X158204819Y-105440475D01*
X158204819Y-105440475D02*
X158157200Y-105535713D01*
X158157200Y-105535713D02*
X158109580Y-105583332D01*
X156154761Y-104150057D02*
X156059523Y-104102438D01*
X156059523Y-104102438D02*
X155964285Y-104007200D01*
X155964285Y-104007200D02*
X155821428Y-103864342D01*
X155821428Y-103864342D02*
X155726190Y-103816723D01*
X155726190Y-103816723D02*
X155630952Y-103816723D01*
X155678571Y-104054819D02*
X155583333Y-104007200D01*
X155583333Y-104007200D02*
X155488095Y-103911961D01*
X155488095Y-103911961D02*
X155440476Y-103721485D01*
X155440476Y-103721485D02*
X155440476Y-103388152D01*
X155440476Y-103388152D02*
X155488095Y-103197676D01*
X155488095Y-103197676D02*
X155583333Y-103102438D01*
X155583333Y-103102438D02*
X155678571Y-103054819D01*
X155678571Y-103054819D02*
X155869047Y-103054819D01*
X155869047Y-103054819D02*
X155964285Y-103102438D01*
X155964285Y-103102438D02*
X156059523Y-103197676D01*
X156059523Y-103197676D02*
X156107142Y-103388152D01*
X156107142Y-103388152D02*
X156107142Y-103721485D01*
X156107142Y-103721485D02*
X156059523Y-103911961D01*
X156059523Y-103911961D02*
X155964285Y-104007200D01*
X155964285Y-104007200D02*
X155869047Y-104054819D01*
X155869047Y-104054819D02*
X155678571Y-104054819D01*
X157059523Y-104054819D02*
X156488095Y-104054819D01*
X156773809Y-104054819D02*
X156773809Y-103054819D01*
X156773809Y-103054819D02*
X156678571Y-103197676D01*
X156678571Y-103197676D02*
X156583333Y-103292914D01*
X156583333Y-103292914D02*
X156488095Y-103340533D01*
X158114265Y-95914331D02*
X157609189Y-96419407D01*
X157609189Y-96419407D02*
X157474502Y-96486751D01*
X157474502Y-96486751D02*
X157339815Y-96486751D01*
X157339815Y-96486751D02*
X157205128Y-96419407D01*
X157205128Y-96419407D02*
X157137784Y-96352064D01*
X158114265Y-97328545D02*
X157710204Y-96924484D01*
X157912235Y-97126514D02*
X158619342Y-96419407D01*
X158619342Y-96419407D02*
X158450983Y-96453079D01*
X158450983Y-96453079D02*
X158316296Y-96453079D01*
X158316296Y-96453079D02*
X158215281Y-96419407D01*
G04 #@! TO.C,U4*
X142992000Y-101920000D02*
X142992000Y-102170000D01*
X142992000Y-104580000D02*
X142992000Y-104330000D01*
X143742000Y-101920000D02*
X142992000Y-101920000D01*
X143742000Y-104580000D02*
X142992000Y-104580000D01*
X145402000Y-101920000D02*
X146152000Y-101920000D01*
X145402000Y-104580000D02*
X146152000Y-104580000D01*
X146152000Y-101920000D02*
X146152000Y-102170000D01*
X146152000Y-104580000D02*
X146152000Y-104330000D01*
X142732000Y-102490000D02*
G75*
G02*
X142592000Y-102490000I-70000J0D01*
G01*
X142592000Y-102490000D02*
G75*
G02*
X142732000Y-102490000I70000J0D01*
G01*
D11*
G04 #@! TO.C,USBC1*
X165850000Y-100530000D02*
X163990000Y-100530000D01*
X165850000Y-109470000D02*
X163990000Y-109470000D01*
X169570000Y-100530000D02*
X168090000Y-100530000D01*
X169570000Y-100530000D02*
X169570000Y-109470000D01*
X169570000Y-109470000D02*
X168090000Y-109470000D01*
G04 #@! TO.C,U2*
X159170000Y-112890000D02*
X158330000Y-112890000D01*
X159450000Y-109970000D02*
X158050000Y-109970000D01*
X159640000Y-111120000D02*
X159640000Y-111880000D01*
D12*
X156890000Y-110540000D02*
G75*
G02*
X156590000Y-110540000I-150000J0D01*
G01*
X156590000Y-110540000D02*
G75*
G02*
X156890000Y-110540000I150000J0D01*
G01*
D10*
G04 #@! TO.C,U5*
X143430000Y-93150000D02*
X144930000Y-93150000D01*
X143430000Y-94850000D02*
X143430000Y-93150000D01*
X143430000Y-94850000D02*
X145130000Y-94850000D01*
X144930000Y-93150000D02*
X145130000Y-93350000D01*
X145130000Y-93350000D02*
X145130000Y-93950000D01*
X145130000Y-94850000D02*
X145130000Y-93900000D01*
D13*
G04 #@! TO.C,D1*
X158110000Y-99000000D02*
G75*
G02*
X158010000Y-99000000I-50000J0D01*
G01*
X158010000Y-99000000D02*
G75*
G02*
X158110000Y-99000000I50000J0D01*
G01*
D14*
G04 #@! TO.C,SW1*
X158760984Y-118640021D02*
X159319598Y-119198635D01*
X159326670Y-116589411D02*
X160528751Y-115387330D01*
X160458040Y-119488549D02*
X164488549Y-115458040D01*
X161447990Y-114468091D02*
X161589411Y-114326670D01*
X161483345Y-118463244D02*
X162395513Y-119375412D01*
X162395513Y-119375412D02*
X162685427Y-119382483D01*
X162685427Y-119382483D02*
X163321823Y-118746087D01*
X163314752Y-118456173D02*
X162402584Y-117544005D01*
X163314752Y-118456173D02*
X163321823Y-118746087D01*
X164198635Y-114319598D02*
X163640021Y-113760984D01*
D13*
G04 #@! TO.C,D2*
X157945000Y-103000000D02*
G75*
G02*
X157845000Y-103000000I-50000J0D01*
G01*
X157845000Y-103000000D02*
G75*
G02*
X157945000Y-103000000I50000J0D01*
G01*
D10*
G04 #@! TO.C,U1*
X156950000Y-99860000D02*
X156950000Y-99870000D01*
X156950000Y-102130000D02*
X156950000Y-102150000D01*
X156950000Y-102150000D02*
X160000000Y-102150000D01*
X160000000Y-99860000D02*
X156950000Y-99860000D01*
X160000000Y-99870000D02*
X160000000Y-99860000D01*
X160000000Y-102150000D02*
X160000000Y-102130000D01*
X160330000Y-102300000D02*
G75*
G02*
X160210000Y-102300000I-60000J0D01*
G01*
X160210000Y-102300000D02*
G75*
G02*
X160330000Y-102300000I60000J0D01*
G01*
D14*
G04 #@! TO.C,D3*
X158800000Y-108010000D02*
X158800000Y-104350000D01*
X158800000Y-108010000D02*
X160700000Y-108010000D01*
X160700000Y-108010000D02*
X160700000Y-104350000D01*
G04 #@! TO.C,Q1*
X156250000Y-104440000D02*
X155600000Y-104440000D01*
X156250000Y-104440000D02*
X156900000Y-104440000D01*
X156250000Y-107560000D02*
X155600000Y-107560000D01*
X156250000Y-107560000D02*
X156900000Y-107560000D01*
X155087500Y-104490000D02*
X154847500Y-104160000D01*
X155327500Y-104160000D01*
X155087500Y-104490000D01*
G36*
X155087500Y-104490000D02*
G01*
X154847500Y-104160000D01*
X155327500Y-104160000D01*
X155087500Y-104490000D01*
G37*
G04 #@! TO.C,J1*
X156571467Y-93601041D02*
X157222005Y-94251580D01*
X157222005Y-94251580D02*
X158353376Y-93120209D01*
X157702837Y-92469671D02*
X158353376Y-93120209D01*
X158353376Y-93120209D02*
X158551366Y-93318199D01*
X159909011Y-91338300D02*
X161040381Y-90206929D01*
X160248422Y-97277997D02*
X160898960Y-97928535D01*
X160616117Y-92045406D02*
X159909011Y-91338300D01*
X160828249Y-92964645D02*
X163911235Y-89881660D01*
X160898960Y-97928535D02*
X166428535Y-92398960D01*
X161040381Y-90206929D02*
X161747488Y-90914036D01*
X161181803Y-95948636D02*
X160322668Y-96807771D01*
X161181803Y-95948636D02*
X161379793Y-96146626D01*
X161379793Y-96146626D02*
X160248422Y-97277997D01*
X161535356Y-93671752D02*
X160828249Y-92964645D01*
X161747488Y-90914036D02*
X160616117Y-92045406D01*
X162030331Y-96797164D02*
X161379793Y-96146626D01*
X162101042Y-88071466D02*
X156571467Y-93601041D01*
X162454595Y-93883884D02*
X163161702Y-94590991D01*
X163161702Y-94590991D02*
X164293073Y-93459620D01*
X163585966Y-92752513D02*
X162454595Y-93883884D01*
X163585966Y-92752513D02*
X165184027Y-91154452D01*
X163939519Y-93106067D02*
X165537581Y-91508005D01*
X164293073Y-93459620D02*
X163585966Y-92752513D01*
X164618342Y-90588766D02*
X161535356Y-93671752D01*
X166428535Y-92398960D02*
X162101042Y-88071466D01*
G04 #@! TD*
%LPC*%
D15*
G04 #@! TO.C,U4*
X143312000Y-102500000D03*
X143312000Y-103000000D03*
X143312000Y-103500000D03*
X143312000Y-104000000D03*
D16*
X144072000Y-104260000D03*
X144572000Y-104260000D03*
X145072000Y-104260000D03*
D15*
X145832000Y-104000000D03*
X145832000Y-103500000D03*
X145832000Y-103000000D03*
X145832000Y-102500000D03*
D16*
X145072000Y-102240000D03*
X144572000Y-102240000D03*
X144072000Y-102240000D03*
G04 #@! TD*
D17*
G04 #@! TO.C,R6*
X143750000Y-99750000D03*
X143750000Y-98750000D03*
G04 #@! TD*
G04 #@! TO.C,R7*
X145100000Y-99750000D03*
X145100000Y-98750000D03*
G04 #@! TD*
D18*
G04 #@! TO.C,USBC1*
X163260000Y-107900000D03*
X163260000Y-102100000D03*
D19*
X162760000Y-100670000D03*
D20*
X166940000Y-100670000D03*
X166940000Y-109330000D03*
D19*
X162760000Y-109330000D03*
D21*
X162000000Y-108200000D03*
X162000000Y-107400000D03*
D22*
X162000000Y-106250000D03*
X162000000Y-105250000D03*
X162000000Y-104750000D03*
X162000000Y-103750000D03*
D21*
X162000000Y-101800000D03*
X162000000Y-102600000D03*
D22*
X162000000Y-103250000D03*
X162000000Y-104250000D03*
X162000000Y-105750000D03*
X162000000Y-106750000D03*
G04 #@! TD*
D23*
G04 #@! TO.C,U2*
X157650000Y-110550000D03*
X157650000Y-111500000D03*
X157650000Y-112450000D03*
X159850000Y-112450000D03*
X159850000Y-110550000D03*
G04 #@! TD*
D24*
G04 #@! TO.C,U5*
X144850000Y-93430000D03*
X144850000Y-94000000D03*
X144850000Y-94570000D03*
X144560000Y-93720000D03*
X144560000Y-94280000D03*
X144280000Y-93430000D03*
X144280000Y-94570000D03*
X144000000Y-93720000D03*
X144000000Y-94280000D03*
X143710000Y-93430000D03*
X143710000Y-94000000D03*
X143710000Y-94570000D03*
G04 #@! TD*
D25*
G04 #@! TO.C,C3*
X157250000Y-113500000D03*
X158250000Y-113500000D03*
G04 #@! TD*
D26*
G04 #@! TO.C,D1*
X157455000Y-99000000D03*
X156485000Y-99000000D03*
G04 #@! TD*
D27*
G04 #@! TO.C,R2*
X157470000Y-103000000D03*
X156470000Y-103000000D03*
G04 #@! TD*
D28*
G04 #@! TO.C,SW1*
X158117517Y-118279396D03*
X159680223Y-119842102D03*
D29*
X160422685Y-117544005D03*
X162544005Y-115422685D03*
D28*
X163279396Y-113117517D03*
X164842102Y-114680223D03*
D30*
X158647847Y-116829828D03*
X160769167Y-114708507D03*
X161829828Y-113647847D03*
G04 #@! TD*
D31*
G04 #@! TO.C,D2*
X158500000Y-103000000D03*
X159470000Y-103000000D03*
G04 #@! TD*
D17*
G04 #@! TO.C,R3*
X155220000Y-102500000D03*
X155220000Y-101500000D03*
G04 #@! TD*
D32*
G04 #@! TO.C,U1*
X159970000Y-101750000D03*
X159970000Y-101250000D03*
X159970000Y-100750000D03*
X159970000Y-100250000D03*
X156970000Y-100250000D03*
X156970000Y-100750000D03*
X156970000Y-101250000D03*
X156970000Y-101750000D03*
D33*
X158470000Y-101000000D03*
G04 #@! TD*
D34*
G04 #@! TO.C,D3*
X159750000Y-107150000D03*
X159750000Y-104350000D03*
G04 #@! TD*
D35*
G04 #@! TO.C,Q1*
X155312500Y-105050000D03*
X155312500Y-106950000D03*
X157187500Y-106000000D03*
G04 #@! TD*
D17*
G04 #@! TO.C,C1*
X155250000Y-110000000D03*
X155250000Y-109000000D03*
G04 #@! TD*
D25*
G04 #@! TO.C,C2*
X159970000Y-99250000D03*
X160970000Y-99250000D03*
G04 #@! TD*
D36*
G04 #@! TO.C,R5*
X156500000Y-109000000D03*
X156500000Y-110000000D03*
G04 #@! TD*
D17*
G04 #@! TO.C,R1*
X160470000Y-109500000D03*
X160470000Y-108500000D03*
G04 #@! TD*
D37*
G04 #@! TO.C,J1*
X160474696Y-95439519D03*
D38*
X159060482Y-94025305D03*
G04 #@! TD*
D36*
G04 #@! TO.C,R4*
X155220000Y-99000000D03*
X155220000Y-100000000D03*
G04 #@! TD*
D39*
G04 #@! TO.C,U6*
X135500000Y-112620000D03*
X138040000Y-112620000D03*
X140580000Y-112620000D03*
X143120000Y-112620000D03*
X145660000Y-112620000D03*
X148200000Y-112620000D03*
X150740000Y-112620000D03*
X153280000Y-112620000D03*
X153280000Y-97380000D03*
X150740000Y-97380000D03*
X148200000Y-97380000D03*
X145660000Y-97380000D03*
X143120000Y-97380000D03*
X140580000Y-97380000D03*
X138040000Y-97380000D03*
X135500000Y-97380000D03*
G04 #@! TD*
%LPD*%
M02*
