G04 #@! TF.GenerationSoftware,KiCad,Pcbnew,9.0.1*
G04 #@! TF.CreationDate,2025-10-21T12:51:46+03:00*
G04 #@! TF.ProjectId,Twyst-Hardware,54777973-742d-4486-9172-64776172652e,rev?*
G04 #@! TF.SameCoordinates,Original*
G04 #@! TF.FileFunction,Copper,L2,Bot*
G04 #@! TF.FilePolarity,Positive*
%FSLAX46Y46*%
G04 Gerber Fmt 4.6, Leading zero omitted, Abs format (unit mm)*
G04 Created by KiCad (PCBNEW 9.0.1) date 2025-10-21 12:51:46*
%MOMM*%
%LPD*%
G01*
G04 APERTURE LIST*
G04 Aperture macros list*
%AMRoundRect*
0 Rectangle with rounded corners*
0 $1 Rounding radius*
0 $2 $3 $4 $5 $6 $7 $8 $9 X,Y pos of 4 corners*
0 Add a 4 corners polygon primitive as box body*
4,1,4,$2,$3,$4,$5,$6,$7,$8,$9,$2,$3,0*
0 Add four circle primitives for the rounded corners*
1,1,$1+$1,$2,$3*
1,1,$1+$1,$4,$5*
1,1,$1+$1,$6,$7*
1,1,$1+$1,$8,$9*
0 Add four rect primitives between the rounded corners*
20,1,$1+$1,$2,$3,$4,$5,0*
20,1,$1+$1,$4,$5,$6,$7,0*
20,1,$1+$1,$6,$7,$8,$9,0*
20,1,$1+$1,$8,$9,$2,$3,0*%
%AMHorizOval*
0 Thick line with rounded ends*
0 $1 width*
0 $2 $3 position (X,Y) of the first rounded end (center of the circle)*
0 $4 $5 position (X,Y) of the second rounded end (center of the circle)*
0 Add line between two ends*
20,1,$1,$2,$3,$4,$5,0*
0 Add two circle primitives to create the rounded ends*
1,1,$1,$2,$3*
1,1,$1,$4,$5*%
G04 Aperture macros list end*
G04 #@! TA.AperFunction,ComponentPad*
%ADD10C,0.750000*%
G04 #@! TD*
G04 #@! TA.AperFunction,ComponentPad*
%ADD11O,2.000000X1.200000*%
G04 #@! TD*
G04 #@! TA.AperFunction,ComponentPad*
%ADD12O,1.800000X1.200000*%
G04 #@! TD*
G04 #@! TA.AperFunction,ComponentPad*
%ADD13RoundRect,0.250000X0.689429X0.194454X0.194454X0.689429X-0.689429X-0.194454X-0.194454X-0.689429X0*%
G04 #@! TD*
G04 #@! TA.AperFunction,ComponentPad*
%ADD14HorizOval,1.200000X0.194454X0.194454X-0.194454X-0.194454X0*%
G04 #@! TD*
G04 #@! TA.AperFunction,ComponentPad*
%ADD15C,1.348000*%
G04 #@! TD*
G04 #@! TA.AperFunction,ViaPad*
%ADD16C,0.600000*%
G04 #@! TD*
G04 #@! TA.AperFunction,ViaPad*
%ADD17C,0.200000*%
G04 #@! TD*
G04 #@! TA.AperFunction,Conductor*
%ADD18C,0.200000*%
G04 #@! TD*
G04 APERTURE END LIST*
D10*
G04 #@! TO.P,USBC1,*
G04 #@! TO.N,*
X163260000Y-107900000D03*
X163260000Y-102100000D03*
D11*
G04 #@! TO.P,USBC1,1,EH*
G04 #@! TO.N,unconnected-(USBC1-EH-Pad1)*
X162760000Y-100670000D03*
D12*
G04 #@! TO.P,USBC1,2,EH*
G04 #@! TO.N,unconnected-(USBC1-EH-Pad2)*
X166940000Y-100670000D03*
G04 #@! TO.P,USBC1,3,EH*
G04 #@! TO.N,unconnected-(USBC1-EH-Pad3)*
X166940000Y-109330000D03*
D11*
G04 #@! TO.P,USBC1,4,EH*
G04 #@! TO.N,unconnected-(USBC1-EH-Pad4)*
X162760000Y-109330000D03*
G04 #@! TD*
D13*
G04 #@! TO.P,J1,1,Pin_1*
G04 #@! TO.N,VBAT*
X160474696Y-95439519D03*
D14*
G04 #@! TO.P,J1,2,Pin_2*
G04 #@! TO.N,GND*
X159060482Y-94025305D03*
G04 #@! TD*
D15*
G04 #@! TO.P,U6,5V,5V*
G04 #@! TO.N,unconnected-(U6-Pad5V)*
X135500000Y-112620000D03*
G04 #@! TO.P,U6,G,GND*
G04 #@! TO.N,GND*
X138040000Y-112620000D03*
G04 #@! TO.P,U6,3.3,3V3*
G04 #@! TO.N,+3.3V*
X140580000Y-112620000D03*
G04 #@! TO.P,U6,4,GPIO4*
G04 #@! TO.N,unconnected-(U6-GPIO4-Pad4)*
X143120000Y-112620000D03*
G04 #@! TO.P,U6,3,GPIO3*
G04 #@! TO.N,unconnected-(U6-GPIO3-Pad3)*
X145660000Y-112620000D03*
G04 #@! TO.P,U6,2,GPIO2*
G04 #@! TO.N,unconnected-(U6-GPIO2-Pad2)*
X148200000Y-112620000D03*
G04 #@! TO.P,U6,1,GPIO1*
G04 #@! TO.N,unconnected-(U6-GPIO1-Pad1)*
X150740000Y-112620000D03*
G04 #@! TO.P,U6,0,GPIO0*
G04 #@! TO.N,unconnected-(U6-GPIO0-Pad0)*
X153280000Y-112620000D03*
G04 #@! TO.P,U6,21,GPIO21*
G04 #@! TO.N,unconnected-(U6-GPIO21-Pad21)*
X153280000Y-97380000D03*
G04 #@! TO.P,U6,20,GPIO20*
G04 #@! TO.N,unconnected-(U6-GPIO20-Pad20)*
X150740000Y-97380000D03*
G04 #@! TO.P,U6,10,GPIO10*
G04 #@! TO.N,Net-(U4-INT1{slash}INT)*
X148200000Y-97380000D03*
G04 #@! TO.P,U6,9,GPIO9*
G04 #@! TO.N,Net-(U4-AP_SCL{slash}AP_SCLK)*
X145660000Y-97380000D03*
G04 #@! TO.P,U6,8,GPIO8*
G04 #@! TO.N,Net-(U4-AP_SDA{slash}AP_SDIO{slash}AP_SDI)*
X143120000Y-97380000D03*
G04 #@! TO.P,U6,7,GPIO7*
G04 #@! TO.N,Net-(U5-DRY)*
X140580000Y-97380000D03*
G04 #@! TO.P,U6,6,GPIO6*
G04 #@! TO.N,unconnected-(U6-GPIO6-Pad6)*
X138040000Y-97380000D03*
G04 #@! TO.P,U6,5,GPIO5*
G04 #@! TO.N,unconnected-(U6-GPIO5-Pad5)*
X135500000Y-97380000D03*
G04 #@! TD*
D16*
G04 #@! TO.N,+3.3V*
X141500000Y-93500000D03*
G04 #@! TO.N,GND*
X143000000Y-93500000D03*
X142000000Y-95000000D03*
D17*
G04 #@! TO.N,Net-(U4-AP_SDA{slash}AP_SDIO{slash}AP_SDI)*
X144482050Y-94200000D03*
G04 #@! TO.N,Net-(U5-DRY)*
X144080000Y-94200000D03*
D16*
G04 #@! TO.N,GND*
X144500000Y-105400000D03*
X142500000Y-105500000D03*
G04 #@! TO.N,+3.3V*
X146250000Y-101500000D03*
X144250000Y-101000000D03*
G04 #@! TO.N,GND*
X156220000Y-100750000D03*
X161220000Y-100750000D03*
G04 #@! TO.N,VBAT*
X157750000Y-107000000D03*
X159250000Y-99250000D03*
G04 #@! TD*
D18*
G04 #@! TO.N,+3.3V*
X139605000Y-95395000D02*
X141500000Y-93500000D01*
X142821141Y-101000000D02*
X139605000Y-97783859D01*
X139605000Y-97783859D02*
X139605000Y-95395000D01*
X144250000Y-101000000D02*
X142821141Y-101000000D01*
G04 #@! TO.N,GND*
X143000000Y-93500000D02*
X143000000Y-94000000D01*
X143000000Y-94000000D02*
X142000000Y-95000000D01*
G04 #@! TO.N,Net-(U4-AP_SDA{slash}AP_SDIO{slash}AP_SDI)*
X144482050Y-94200000D02*
X144482050Y-96017950D01*
X144482050Y-96017950D02*
X143120000Y-97380000D01*
G04 #@! TO.N,Net-(U5-DRY)*
X144080000Y-94200000D02*
X143760000Y-94200000D01*
X143760000Y-94200000D02*
X140580000Y-97380000D01*
G04 #@! TO.N,GND*
X144400000Y-105500000D02*
X144500000Y-105400000D01*
X142500000Y-105500000D02*
X144400000Y-105500000D01*
G04 #@! TO.N,+3.3V*
X140580000Y-112620000D02*
X147500000Y-105700000D01*
X147500000Y-102750000D02*
X146250000Y-101500000D01*
X147500000Y-105700000D02*
X147500000Y-102750000D01*
X144250000Y-101000000D02*
X145750000Y-101000000D01*
X145750000Y-101000000D02*
X146250000Y-101500000D01*
G04 #@! TO.N,GND*
X161220000Y-100750000D02*
X156220000Y-100750000D01*
G04 #@! TO.N,VBAT*
X157750000Y-107000000D02*
X155619000Y-104869000D01*
X155619000Y-100501057D02*
X156870057Y-99250000D01*
X156870057Y-99250000D02*
X159250000Y-99250000D01*
X159250000Y-99250000D02*
X159250000Y-96664215D01*
X159250000Y-96664215D02*
X160474696Y-95439519D01*
X155619000Y-104869000D02*
X155619000Y-100501057D01*
G04 #@! TD*
M02*
