M48
; DRILL file {KiCad 9.0.1} date 2025-10-21T12:51:46+0300
; FORMAT={-:-/ absolute / metric / decimal}
; #@! TF.CreationDate,2025-10-21T12:51:46+03:00
; #@! TF.GenerationSoftware,Kicad,Pcbnew,9.0.1
; #@! TF.FileFunction,Plated,1,2,PTH
FMAT,2
METRIC
; #@! TA.AperFunction,Plated,PTH,ViaDrill
T1C0.100
; #@! TA.AperFunction,Plated,PTH,ViaDrill
T2C0.300
; #@! TA.AperFunction,Plated,PTH,ComponentDrill
T3C0.750
; #@! TA.AperFunction,Plated,PTH,ComponentDrill
T4C0.800
; #@! TA.AperFunction,Plated,PTH,ComponentDrill
T5C0.840
%
G90
G05
T1
X144.08Y-94.2
X144.482Y-94.2
T2
X141.5Y-93.5
X142.0Y-95.0
X142.5Y-105.5
X143.0Y-93.5
X144.25Y-101.0
X144.5Y-105.4
X146.25Y-101.5
X156.22Y-100.75
X157.75Y-107.0
X159.25Y-99.25
X161.22Y-100.75
T3
X159.06Y-94.025
X160.475Y-95.44
X163.26Y-102.1
X163.26Y-107.9
T5
X135.5Y-97.38
X135.5Y-112.62
X138.04Y-97.38
X138.04Y-112.62
X140.58Y-97.38
X140.58Y-112.62
X143.12Y-97.38
X143.12Y-112.62
X145.66Y-97.38
X145.66Y-112.62
X148.2Y-97.38
X148.2Y-112.62
X150.74Y-97.38
X150.74Y-112.62
X153.28Y-97.38
X153.28Y-112.62
T4
G00X162.36Y-100.67
M15
G01X163.16Y-100.67
M16
G05
G00X162.36Y-109.33
M15
G01X163.16Y-109.33
M16
G05
G00X166.64Y-100.67
M15
G01X167.24Y-100.67
M16
G05
G00X166.64Y-109.33
M15
G01X167.24Y-109.33
M16
G05
M30
