G04 #@! TF.GenerationSoftware,KiCad,Pcbnew,9.0.1*
G04 #@! TF.CreationDate,2025-10-21T12:51:46+03:00*
G04 #@! TF.ProjectId,Twyst-Hardware,54777973-742d-4486-9172-64776172652e,rev?*
G04 #@! TF.SameCoordinates,Original*
G04 #@! TF.FileFunction,Copper,L1,Top*
G04 #@! TF.FilePolarity,Positive*
%FSLAX46Y46*%
G04 Gerber Fmt 4.6, Leading zero omitted, Abs format (unit mm)*
G04 Created by KiCad (PCBNEW 9.0.1) date 2025-10-21 12:51:46*
%MOMM*%
%LPD*%
G01*
G04 APERTURE LIST*
G04 Aperture macros list*
%AMRoundRect*
0 Rectangle with rounded corners*
0 $1 Rounding radius*
0 $2 $3 $4 $5 $6 $7 $8 $9 X,Y pos of 4 corners*
0 Add a 4 corners polygon primitive as box body*
4,1,4,$2,$3,$4,$5,$6,$7,$8,$9,$2,$3,0*
0 Add four circle primitives for the rounded corners*
1,1,$1+$1,$2,$3*
1,1,$1+$1,$4,$5*
1,1,$1+$1,$6,$7*
1,1,$1+$1,$8,$9*
0 Add four rect primitives between the rounded corners*
20,1,$1+$1,$2,$3,$4,$5,0*
20,1,$1+$1,$4,$5,$6,$7,0*
20,1,$1+$1,$6,$7,$8,$9,0*
20,1,$1+$1,$8,$9,$2,$3,0*%
%AMHorizOval*
0 Thick line with rounded ends*
0 $1 width*
0 $2 $3 position (X,Y) of the first rounded end (center of the circle)*
0 $4 $5 position (X,Y) of the second rounded end (center of the circle)*
0 Add line between two ends*
20,1,$1,$2,$3,$4,$5,0*
0 Add two circle primitives to create the rounded ends*
1,1,$1,$2,$3*
1,1,$1,$4,$5*%
%AMRotRect*
0 Rectangle, with rotation*
0 The origin of the aperture is its center*
0 $1 length*
0 $2 width*
0 $3 Rotation angle, in degrees counterclockwise*
0 Add horizontal line*
21,1,$1,$2,0,0,$3*%
%AMFreePoly0*
4,1,13,0.335355,0.685355,0.350000,0.650000,0.350000,-0.650000,0.335355,-0.685355,0.300000,-0.700000,-0.300000,-0.700000,-0.335355,-0.685355,-0.350000,-0.650000,-0.350000,0.650000,-0.335355,0.685355,-0.300000,0.700000,0.300000,0.700000,0.335355,0.685355,0.335355,0.685355,$1*%
G04 Aperture macros list end*
G04 #@! TA.AperFunction,SMDPad,CuDef*
%ADD10R,0.680000X0.280000*%
G04 #@! TD*
G04 #@! TA.AperFunction,SMDPad,CuDef*
%ADD11R,0.280000X0.680000*%
G04 #@! TD*
G04 #@! TA.AperFunction,SMDPad,CuDef*
%ADD12RoundRect,0.140000X0.170000X-0.140000X0.170000X0.140000X-0.170000X0.140000X-0.170000X-0.140000X0*%
G04 #@! TD*
G04 #@! TA.AperFunction,ComponentPad*
%ADD13C,0.750000*%
G04 #@! TD*
G04 #@! TA.AperFunction,ComponentPad*
%ADD14O,2.000000X1.200000*%
G04 #@! TD*
G04 #@! TA.AperFunction,ComponentPad*
%ADD15O,1.800000X1.200000*%
G04 #@! TD*
G04 #@! TA.AperFunction,SMDPad,CuDef*
%ADD16FreePoly0,90.000000*%
G04 #@! TD*
G04 #@! TA.AperFunction,SMDPad,CuDef*
%ADD17R,1.300000X0.300000*%
G04 #@! TD*
G04 #@! TA.AperFunction,SMDPad,CuDef*
%ADD18R,1.000000X0.600000*%
G04 #@! TD*
G04 #@! TA.AperFunction,SMDPad,CuDef*
%ADD19C,0.200000*%
G04 #@! TD*
G04 #@! TA.AperFunction,SMDPad,CuDef*
%ADD20RoundRect,0.140000X-0.140000X-0.170000X0.140000X-0.170000X0.140000X0.170000X-0.140000X0.170000X0*%
G04 #@! TD*
G04 #@! TA.AperFunction,SMDPad,CuDef*
%ADD21RoundRect,0.147500X0.147500X0.172500X-0.147500X0.172500X-0.147500X-0.172500X0.147500X-0.172500X0*%
G04 #@! TD*
G04 #@! TA.AperFunction,SMDPad,CuDef*
%ADD22RoundRect,0.140000X0.140000X0.170000X-0.140000X0.170000X-0.140000X-0.170000X0.140000X-0.170000X0*%
G04 #@! TD*
G04 #@! TA.AperFunction,SMDPad,CuDef*
%ADD23RotRect,1.000000X0.800000X45.000000*%
G04 #@! TD*
G04 #@! TA.AperFunction,SMDPad,CuDef*
%ADD24RotRect,0.700000X1.500000X45.000000*%
G04 #@! TD*
G04 #@! TA.AperFunction,SMDPad,CuDef*
%ADD25RoundRect,0.147500X-0.147500X-0.172500X0.147500X-0.172500X0.147500X0.172500X-0.147500X0.172500X0*%
G04 #@! TD*
G04 #@! TA.AperFunction,SMDPad,CuDef*
%ADD26R,0.750000X0.300000*%
G04 #@! TD*
G04 #@! TA.AperFunction,SMDPad,CuDef*
%ADD27R,1.600000X1.600000*%
G04 #@! TD*
G04 #@! TA.AperFunction,SMDPad,CuDef*
%ADD28R,1.200000X1.200000*%
G04 #@! TD*
G04 #@! TA.AperFunction,SMDPad,CuDef*
%ADD29RoundRect,0.150000X-0.587500X-0.150000X0.587500X-0.150000X0.587500X0.150000X-0.587500X0.150000X0*%
G04 #@! TD*
G04 #@! TA.AperFunction,SMDPad,CuDef*
%ADD30RoundRect,0.140000X-0.170000X0.140000X-0.170000X-0.140000X0.170000X-0.140000X0.170000X0.140000X0*%
G04 #@! TD*
G04 #@! TA.AperFunction,ComponentPad*
%ADD31RoundRect,0.250000X0.689429X0.194454X0.194454X0.689429X-0.689429X-0.194454X-0.194454X-0.689429X0*%
G04 #@! TD*
G04 #@! TA.AperFunction,ComponentPad*
%ADD32HorizOval,1.200000X0.194454X0.194454X-0.194454X-0.194454X0*%
G04 #@! TD*
G04 #@! TA.AperFunction,ComponentPad*
%ADD33C,1.348000*%
G04 #@! TD*
G04 #@! TA.AperFunction,ViaPad*
%ADD34C,0.600000*%
G04 #@! TD*
G04 #@! TA.AperFunction,ViaPad*
%ADD35C,0.200000*%
G04 #@! TD*
G04 #@! TA.AperFunction,Conductor*
%ADD36C,0.200000*%
G04 #@! TD*
G04 APERTURE END LIST*
D10*
G04 #@! TO.P,U4,1,AP_SDO/AP_AD0*
G04 #@! TO.N,GND*
X143312000Y-102500000D03*
G04 #@! TO.P,U4,2,RESV/AUX1_SDIO/AUX1_SDI/MAS_DA*
G04 #@! TO.N,unconnected-(U4-RESV{slash}AUX1_SDIO{slash}AUX1_SDI{slash}MAS_DA-Pad2)*
X143312000Y-103000000D03*
G04 #@! TO.P,U4,3,RESV/AUX1_SCLK/MAS_CLK*
G04 #@! TO.N,unconnected-(U4-RESV{slash}AUX1_SCLK{slash}MAS_CLK-Pad3)*
X143312000Y-103500000D03*
G04 #@! TO.P,U4,4,INT1/INT*
G04 #@! TO.N,Net-(U4-INT1{slash}INT)*
X143312000Y-104000000D03*
D11*
G04 #@! TO.P,U4,5,VDDIO*
G04 #@! TO.N,+3.3V*
X144072000Y-104260000D03*
G04 #@! TO.P,U4,6,GND*
G04 #@! TO.N,GND*
X144572000Y-104260000D03*
G04 #@! TO.P,U4,7,RESV*
G04 #@! TO.N,unconnected-(U4-RESV-Pad7)*
X145072000Y-104260000D03*
D10*
G04 #@! TO.P,U4,8,VDD*
G04 #@! TO.N,+3.3V*
X145832000Y-104000000D03*
G04 #@! TO.P,U4,9,INT2/FSYNC/CLKIN*
G04 #@! TO.N,unconnected-(U4-INT2{slash}FSYNC{slash}CLKIN-Pad9)*
X145832000Y-103500000D03*
G04 #@! TO.P,U4,10,RESV/AUX1_CS*
G04 #@! TO.N,unconnected-(U4-RESV{slash}AUX1_CS-Pad10)*
X145832000Y-103000000D03*
G04 #@! TO.P,U4,11,RESV/AUX1_SDO*
G04 #@! TO.N,unconnected-(U4-RESV{slash}AUX1_SDO-Pad11)*
X145832000Y-102500000D03*
D11*
G04 #@! TO.P,U4,12,AP_CS*
G04 #@! TO.N,+3.3V*
X145072000Y-102240000D03*
G04 #@! TO.P,U4,13,AP_SCL/AP_SCLK*
G04 #@! TO.N,Net-(U4-AP_SCL{slash}AP_SCLK)*
X144572000Y-102240000D03*
G04 #@! TO.P,U4,14,AP_SDA/AP_SDIO/AP_SDI*
G04 #@! TO.N,Net-(U4-AP_SDA{slash}AP_SDIO{slash}AP_SDI)*
X144072000Y-102240000D03*
G04 #@! TD*
D12*
G04 #@! TO.P,R6,1*
G04 #@! TO.N,+3.3V*
X143750000Y-99750000D03*
G04 #@! TO.P,R6,2*
G04 #@! TO.N,Net-(U4-AP_SDA{slash}AP_SDIO{slash}AP_SDI)*
X143750000Y-98750000D03*
G04 #@! TD*
G04 #@! TO.P,R7,1*
G04 #@! TO.N,+3.3V*
X145100000Y-99750000D03*
G04 #@! TO.P,R7,2*
G04 #@! TO.N,Net-(U4-AP_SCL{slash}AP_SCLK)*
X145100000Y-98750000D03*
G04 #@! TD*
D13*
G04 #@! TO.P,USBC1,*
G04 #@! TO.N,*
X163260000Y-107900000D03*
X163260000Y-102100000D03*
D14*
G04 #@! TO.P,USBC1,1,EH*
G04 #@! TO.N,unconnected-(USBC1-EH-Pad1)*
X162760000Y-100670000D03*
D15*
G04 #@! TO.P,USBC1,2,EH*
G04 #@! TO.N,unconnected-(USBC1-EH-Pad2)*
X166940000Y-100670000D03*
G04 #@! TO.P,USBC1,3,EH*
G04 #@! TO.N,unconnected-(USBC1-EH-Pad3)*
X166940000Y-109330000D03*
D14*
G04 #@! TO.P,USBC1,4,EH*
G04 #@! TO.N,unconnected-(USBC1-EH-Pad4)*
X162760000Y-109330000D03*
D16*
G04 #@! TO.P,USBC1,A1B12,GND*
G04 #@! TO.N,GND*
X162000000Y-108200000D03*
G04 #@! TO.P,USBC1,A4B9,VBUS*
G04 #@! TO.N,VBUS*
X162000000Y-107400000D03*
D17*
G04 #@! TO.P,USBC1,A5,CC1*
G04 #@! TO.N,Net-(USBC1-CC1)*
X162000000Y-106250000D03*
G04 #@! TO.P,USBC1,A6,DP1*
G04 #@! TO.N,D-*
X162000000Y-105250000D03*
G04 #@! TO.P,USBC1,A7,DN1*
G04 #@! TO.N,D+*
X162000000Y-104750000D03*
G04 #@! TO.P,USBC1,A8,SBU1*
G04 #@! TO.N,unconnected-(USBC1-SBU1-PadA8)*
X162000000Y-103750000D03*
D16*
G04 #@! TO.P,USBC1,B1A12,GND*
G04 #@! TO.N,GND*
X162000000Y-101800000D03*
G04 #@! TO.P,USBC1,B4A9,VBUS*
G04 #@! TO.N,VBUS*
X162000000Y-102600000D03*
D17*
G04 #@! TO.P,USBC1,B5,CC2*
G04 #@! TO.N,unconnected-(USBC1-CC2-PadB5)*
X162000000Y-103250000D03*
G04 #@! TO.P,USBC1,B6,DP2*
G04 #@! TO.N,D-*
X162000000Y-104250000D03*
G04 #@! TO.P,USBC1,B7,DN2*
G04 #@! TO.N,D+*
X162000000Y-105750000D03*
G04 #@! TO.P,USBC1,B8,SBU2*
G04 #@! TO.N,unconnected-(USBC1-SBU2-PadB8)*
X162000000Y-106750000D03*
G04 #@! TD*
D18*
G04 #@! TO.P,U2,1,VIN*
G04 #@! TO.N,VSH*
X157650000Y-110550000D03*
G04 #@! TO.P,U2,2,GND*
G04 #@! TO.N,GND*
X157650000Y-111500000D03*
G04 #@! TO.P,U2,3,EN*
G04 #@! TO.N,VSH*
X157650000Y-112450000D03*
G04 #@! TO.P,U2,4,NC*
G04 #@! TO.N,unconnected-(U2-NC-Pad4)*
X159850000Y-112450000D03*
G04 #@! TO.P,U2,5,VOUT*
G04 #@! TO.N,Net-(SW1-B)*
X159850000Y-110550000D03*
G04 #@! TD*
D19*
G04 #@! TO.P,U5,A1,PS*
G04 #@! TO.N,+3.3V*
X144850000Y-93430000D03*
G04 #@! TO.P,U5,A3,SCK*
G04 #@! TO.N,Net-(U4-AP_SCL{slash}AP_SCLK)*
X144850000Y-94000000D03*
G04 #@! TO.P,U5,A5,CSB*
G04 #@! TO.N,GND*
X144850000Y-94570000D03*
G04 #@! TO.P,U5,B2,VDDIO*
G04 #@! TO.N,+3.3V*
X144560000Y-93720000D03*
G04 #@! TO.P,U5,B4,SDI*
G04 #@! TO.N,Net-(U4-AP_SDA{slash}AP_SDIO{slash}AP_SDI)*
X144560000Y-94280000D03*
G04 #@! TO.P,U5,C1,SDO*
G04 #@! TO.N,GND*
X144280000Y-93430000D03*
G04 #@! TO.P,U5,C5,GND*
X144280000Y-94570000D03*
G04 #@! TO.P,U5,D2,INT*
G04 #@! TO.N,unconnected-(U5-INT-PadD2)*
X144000000Y-93720000D03*
G04 #@! TO.P,U5,D4,DRY*
G04 #@! TO.N,Net-(U5-DRY)*
X144000000Y-94280000D03*
G04 #@! TO.P,U5,E1,GND*
G04 #@! TO.N,GND*
X143710000Y-93430000D03*
G04 #@! TO.P,U5,E3,GND*
X143710000Y-94000000D03*
G04 #@! TO.P,U5,E5,VDD*
G04 #@! TO.N,+3.3V*
X143710000Y-94570000D03*
G04 #@! TD*
D20*
G04 #@! TO.P,C3,1*
G04 #@! TO.N,VSH*
X157250000Y-113500000D03*
G04 #@! TO.P,C3,2*
G04 #@! TO.N,GND*
X158250000Y-113500000D03*
G04 #@! TD*
D21*
G04 #@! TO.P,D1,1,K*
G04 #@! TO.N,GND*
X157455000Y-99000000D03*
G04 #@! TO.P,D1,2,A*
G04 #@! TO.N,Net-(D1-A)*
X156485000Y-99000000D03*
G04 #@! TD*
D22*
G04 #@! TO.P,R2,1*
G04 #@! TO.N,Net-(U1-PROG)*
X157470000Y-103000000D03*
G04 #@! TO.P,R2,2*
G04 #@! TO.N,GND*
X156470000Y-103000000D03*
G04 #@! TD*
D23*
G04 #@! TO.P,SW1,*
G04 #@! TO.N,*
X158117517Y-118279396D03*
X159680223Y-119842102D03*
X163279396Y-113117517D03*
X164842102Y-114680223D03*
D24*
G04 #@! TO.P,SW1,1,A*
G04 #@! TO.N,+3.3V*
X158647847Y-116829828D03*
G04 #@! TO.P,SW1,2,B*
G04 #@! TO.N,Net-(SW1-B)*
X160769167Y-114708507D03*
G04 #@! TO.P,SW1,3,C*
G04 #@! TO.N,unconnected-(SW1-C-Pad3)*
X161829828Y-113647847D03*
G04 #@! TD*
D25*
G04 #@! TO.P,D2,1,K*
G04 #@! TO.N,Net-(D2-K)*
X158500000Y-103000000D03*
G04 #@! TO.P,D2,2,A*
G04 #@! TO.N,VBUS*
X159470000Y-103000000D03*
G04 #@! TD*
D12*
G04 #@! TO.P,R3,1*
G04 #@! TO.N,Net-(D2-K)*
X155220000Y-102500000D03*
G04 #@! TO.P,R3,2*
G04 #@! TO.N,Net-(U1-STAT)*
X155220000Y-101500000D03*
G04 #@! TD*
D26*
G04 #@! TO.P,U1,1,VDD*
G04 #@! TO.N,VBUS*
X159970000Y-101750000D03*
G04 #@! TO.P,U1,2,VDD*
X159970000Y-101250000D03*
G04 #@! TO.P,U1,3,VBAT*
G04 #@! TO.N,VBAT*
X159970000Y-100750000D03*
G04 #@! TO.P,U1,4,VBAT*
X159970000Y-100250000D03*
G04 #@! TO.P,U1,5,STAT*
G04 #@! TO.N,Net-(U1-STAT)*
X156970000Y-100250000D03*
G04 #@! TO.P,U1,6,VSS*
G04 #@! TO.N,GND*
X156970000Y-100750000D03*
G04 #@! TO.P,U1,7,NC*
G04 #@! TO.N,unconnected-(U1-NC-Pad7)*
X156970000Y-101250000D03*
G04 #@! TO.P,U1,8,PROG*
G04 #@! TO.N,Net-(U1-PROG)*
X156970000Y-101750000D03*
D27*
G04 #@! TO.P,U1,9,EP*
G04 #@! TO.N,unconnected-(U1-EP-Pad9)*
X158470000Y-101000000D03*
G04 #@! TD*
D28*
G04 #@! TO.P,D3,1,K*
G04 #@! TO.N,VSH*
X159750000Y-107150000D03*
G04 #@! TO.P,D3,2,A*
G04 #@! TO.N,VBUS*
X159750000Y-104350000D03*
G04 #@! TD*
D29*
G04 #@! TO.P,Q1,1,G*
G04 #@! TO.N,VBUS*
X155312500Y-105050000D03*
G04 #@! TO.P,Q1,2,S*
G04 #@! TO.N,VSH*
X155312500Y-106950000D03*
G04 #@! TO.P,Q1,3,D*
G04 #@! TO.N,VBAT*
X157187500Y-106000000D03*
G04 #@! TD*
D12*
G04 #@! TO.P,C1,1*
G04 #@! TO.N,GND*
X155250000Y-110000000D03*
G04 #@! TO.P,C1,2*
G04 #@! TO.N,VBUS*
X155250000Y-109000000D03*
G04 #@! TD*
D20*
G04 #@! TO.P,C2,1*
G04 #@! TO.N,VBAT*
X159970000Y-99250000D03*
G04 #@! TO.P,C2,2*
G04 #@! TO.N,GND*
X160970000Y-99250000D03*
G04 #@! TD*
D30*
G04 #@! TO.P,R5,1*
G04 #@! TO.N,VBUS*
X156500000Y-109000000D03*
G04 #@! TO.P,R5,2*
G04 #@! TO.N,GND*
X156500000Y-110000000D03*
G04 #@! TD*
D12*
G04 #@! TO.P,R1,1*
G04 #@! TO.N,GND*
X160470000Y-109500000D03*
G04 #@! TO.P,R1,2*
G04 #@! TO.N,Net-(USBC1-CC1)*
X160470000Y-108500000D03*
G04 #@! TD*
D31*
G04 #@! TO.P,J1,1,Pin_1*
G04 #@! TO.N,VBAT*
X160474696Y-95439519D03*
D32*
G04 #@! TO.P,J1,2,Pin_2*
G04 #@! TO.N,GND*
X159060482Y-94025305D03*
G04 #@! TD*
D30*
G04 #@! TO.P,R4,1*
G04 #@! TO.N,Net-(D1-A)*
X155220000Y-99000000D03*
G04 #@! TO.P,R4,2*
G04 #@! TO.N,Net-(U1-STAT)*
X155220000Y-100000000D03*
G04 #@! TD*
D33*
G04 #@! TO.P,U6,5V,5V*
G04 #@! TO.N,unconnected-(U6-Pad5V)*
X135500000Y-112620000D03*
G04 #@! TO.P,U6,G,GND*
G04 #@! TO.N,GND*
X138040000Y-112620000D03*
G04 #@! TO.P,U6,3.3,3V3*
G04 #@! TO.N,+3.3V*
X140580000Y-112620000D03*
G04 #@! TO.P,U6,4,GPIO4*
G04 #@! TO.N,unconnected-(U6-GPIO4-Pad4)*
X143120000Y-112620000D03*
G04 #@! TO.P,U6,3,GPIO3*
G04 #@! TO.N,unconnected-(U6-GPIO3-Pad3)*
X145660000Y-112620000D03*
G04 #@! TO.P,U6,2,GPIO2*
G04 #@! TO.N,unconnected-(U6-GPIO2-Pad2)*
X148200000Y-112620000D03*
G04 #@! TO.P,U6,1,GPIO1*
G04 #@! TO.N,unconnected-(U6-GPIO1-Pad1)*
X150740000Y-112620000D03*
G04 #@! TO.P,U6,0,GPIO0*
G04 #@! TO.N,unconnected-(U6-GPIO0-Pad0)*
X153280000Y-112620000D03*
G04 #@! TO.P,U6,21,GPIO21*
G04 #@! TO.N,unconnected-(U6-GPIO21-Pad21)*
X153280000Y-97380000D03*
G04 #@! TO.P,U6,20,GPIO20*
G04 #@! TO.N,unconnected-(U6-GPIO20-Pad20)*
X150740000Y-97380000D03*
G04 #@! TO.P,U6,10,GPIO10*
G04 #@! TO.N,Net-(U4-INT1{slash}INT)*
X148200000Y-97380000D03*
G04 #@! TO.P,U6,9,GPIO9*
G04 #@! TO.N,Net-(U4-AP_SCL{slash}AP_SCLK)*
X145660000Y-97380000D03*
G04 #@! TO.P,U6,8,GPIO8*
G04 #@! TO.N,Net-(U4-AP_SDA{slash}AP_SDIO{slash}AP_SDI)*
X143120000Y-97380000D03*
G04 #@! TO.P,U6,7,GPIO7*
G04 #@! TO.N,Net-(U5-DRY)*
X140580000Y-97380000D03*
G04 #@! TO.P,U6,6,GPIO6*
G04 #@! TO.N,unconnected-(U6-GPIO6-Pad6)*
X138040000Y-97380000D03*
G04 #@! TO.P,U6,5,GPIO5*
G04 #@! TO.N,unconnected-(U6-GPIO5-Pad5)*
X135500000Y-97380000D03*
G04 #@! TD*
D34*
G04 #@! TO.N,+3.3V*
X141500000Y-93500000D03*
G04 #@! TO.N,GND*
X143000000Y-93500000D03*
X142000000Y-95000000D03*
D35*
G04 #@! TO.N,Net-(U4-AP_SDA{slash}AP_SDIO{slash}AP_SDI)*
X144482050Y-94200000D03*
G04 #@! TO.N,Net-(U5-DRY)*
X144080000Y-94200000D03*
D34*
G04 #@! TO.N,GND*
X144500000Y-105400000D03*
X142500000Y-105500000D03*
G04 #@! TO.N,+3.3V*
X146250000Y-101500000D03*
X144250000Y-101000000D03*
G04 #@! TO.N,GND*
X156220000Y-100750000D03*
X161220000Y-100750000D03*
G04 #@! TO.N,VBAT*
X157750000Y-107000000D03*
X159250000Y-99250000D03*
G04 #@! TD*
D36*
G04 #@! TO.N,+3.3V*
X142320000Y-93850000D02*
X142320000Y-93500000D01*
X141500000Y-93500000D02*
X142320000Y-93500000D01*
G04 #@! TO.N,GND*
X143558000Y-93500000D02*
X143000000Y-93500000D01*
X143599000Y-93541000D02*
X143558000Y-93500000D01*
X143500000Y-95500000D02*
X143500000Y-95350000D01*
X143500000Y-95350000D02*
X144280000Y-94570000D01*
X143500000Y-95500000D02*
X143000000Y-95000000D01*
X142500000Y-102730000D02*
X142145000Y-102375000D01*
X142145000Y-102375000D02*
X142145000Y-96855000D01*
X143000000Y-95000000D02*
X142000000Y-95000000D01*
X142145000Y-96855000D02*
X143500000Y-95500000D01*
G04 #@! TO.N,+3.3V*
X143710000Y-94570000D02*
X143040000Y-94570000D01*
X143040000Y-94570000D02*
X142320000Y-93850000D01*
X142320000Y-93500000D02*
X142320000Y-93040000D01*
X142320000Y-93040000D02*
X142860000Y-92500000D01*
X142860000Y-92500000D02*
X143920000Y-92500000D01*
X143920000Y-92500000D02*
X144850000Y-93430000D01*
G04 #@! TO.N,Net-(U5-DRY)*
X144000000Y-94277100D02*
X144000000Y-94280000D01*
G04 #@! TO.N,Net-(U4-AP_SDA{slash}AP_SDIO{slash}AP_SDI)*
X144537000Y-94250000D02*
X144537000Y-94257000D01*
X144537000Y-94257000D02*
X144560000Y-94280000D01*
G04 #@! TO.N,Net-(U4-AP_SCL{slash}AP_SCLK)*
X144850000Y-94000000D02*
X145660000Y-94810000D01*
X145660000Y-94810000D02*
X145660000Y-97380000D01*
G04 #@! TO.N,+3.3V*
X144560000Y-93720000D02*
X144850000Y-93430000D01*
G04 #@! TO.N,GND*
X143710000Y-93430000D02*
X143599000Y-93541000D01*
X143599000Y-93541000D02*
X143599000Y-93889000D01*
X143599000Y-93889000D02*
X143710000Y-94000000D01*
X143710000Y-93430000D02*
X143821000Y-93319000D01*
X143821000Y-93319000D02*
X144169000Y-93319000D01*
X144169000Y-93319000D02*
X144280000Y-93430000D01*
X144280000Y-94570000D02*
X144391000Y-94681000D01*
X144391000Y-94681000D02*
X144739000Y-94681000D01*
X144739000Y-94681000D02*
X144850000Y-94570000D01*
X140750000Y-111500000D02*
X140750000Y-107250000D01*
X140750000Y-107250000D02*
X142500000Y-105500000D01*
X143312000Y-102500000D02*
X142730000Y-102500000D01*
X142500000Y-102730000D02*
X142500000Y-105500000D01*
X142730000Y-102500000D02*
X142500000Y-102730000D01*
X144500000Y-105400000D02*
X144572000Y-105328000D01*
X144572000Y-105328000D02*
X144572000Y-104260000D01*
G04 #@! TO.N,Net-(U4-INT1{slash}INT)*
X143312000Y-104000000D02*
X143312000Y-106000000D01*
X143312000Y-106000000D02*
X146250000Y-106000000D01*
X146250000Y-106000000D02*
X148200000Y-104050000D01*
X148200000Y-104050000D02*
X148200000Y-97380000D01*
G04 #@! TO.N,+3.3V*
X146250000Y-101500000D02*
X146250000Y-101836000D01*
X146250000Y-101836000D02*
X146473000Y-102059000D01*
X144250000Y-100250000D02*
X144600000Y-100250000D01*
X144600000Y-100250000D02*
X145100000Y-99750000D01*
X144250000Y-101000000D02*
X144250000Y-100250000D01*
X144250000Y-100250000D02*
X143750000Y-99750000D01*
G04 #@! TO.N,Net-(U4-AP_SCL{slash}AP_SCLK)*
X145100000Y-98750000D02*
X145500000Y-98750000D01*
X145500000Y-98750000D02*
X145750000Y-99000000D01*
X145750000Y-100537550D02*
X145750000Y-99000000D01*
X144572000Y-101715550D02*
X145750000Y-100537550D01*
X144572000Y-102240000D02*
X144572000Y-101715550D01*
G04 #@! TO.N,Net-(U4-AP_SDA{slash}AP_SDIO{slash}AP_SDI)*
X144072000Y-102240000D02*
X143139000Y-101307000D01*
X143139000Y-101307000D02*
X143139000Y-99361000D01*
X143139000Y-99361000D02*
X143750000Y-98750000D01*
G04 #@! TO.N,Net-(U4-AP_SCL{slash}AP_SCLK)*
X145660000Y-97380000D02*
X145660000Y-98190000D01*
X145660000Y-98190000D02*
X145100000Y-98750000D01*
G04 #@! TO.N,Net-(U4-AP_SDA{slash}AP_SDIO{slash}AP_SDI)*
X143120000Y-97380000D02*
X143120000Y-98120000D01*
X143120000Y-98120000D02*
X143750000Y-98750000D01*
G04 #@! TO.N,+3.3V*
X145072000Y-102240000D02*
X145253000Y-102059000D01*
X145253000Y-102059000D02*
X146473000Y-102059000D01*
X146473000Y-102059000D02*
X146473000Y-103849000D01*
X146473000Y-103849000D02*
X146322000Y-104000000D01*
X146322000Y-104000000D02*
X145832000Y-104000000D01*
G04 #@! TO.N,GND*
X156000000Y-111500000D02*
X140750000Y-111500000D01*
X140750000Y-111500000D02*
X140000000Y-111500000D01*
X156000000Y-111500000D02*
X156000000Y-113187550D01*
X139160000Y-111500000D02*
X138040000Y-112620000D01*
X140000000Y-111500000D02*
X139160000Y-111500000D01*
G04 #@! TO.N,+3.3V*
X158647847Y-116829828D02*
X144789828Y-116829828D01*
X144789828Y-116829828D02*
X140580000Y-112620000D01*
G04 #@! TO.N,GND*
X161459000Y-100750000D02*
X161459000Y-100296794D01*
X166470000Y-107294206D02*
X163533206Y-110231000D01*
X159060482Y-94025305D02*
X159060482Y-98449482D01*
X161986794Y-110231000D02*
X161459000Y-109703206D01*
X159060482Y-98449482D02*
X159250000Y-98639000D01*
X161459000Y-100296794D02*
X161986794Y-99769000D01*
X161986794Y-99769000D02*
X164239000Y-99769000D01*
X161459000Y-108741000D02*
X162000000Y-108200000D01*
X157639000Y-114111000D02*
X158250000Y-113500000D01*
X161220000Y-100750000D02*
X161459000Y-100750000D01*
X163533206Y-110231000D02*
X161986794Y-110231000D01*
X161459000Y-101259000D02*
X161459000Y-100750000D01*
X156000000Y-113187550D02*
X156923450Y-114111000D01*
X160970000Y-99807794D02*
X161459000Y-100296794D01*
X160359000Y-98639000D02*
X160970000Y-99250000D01*
X157816000Y-98639000D02*
X159250000Y-98639000D01*
X157650000Y-111500000D02*
X158350000Y-111500000D01*
X156220000Y-100750000D02*
X156220000Y-102750000D01*
X156220000Y-102750000D02*
X156470000Y-103000000D01*
X160470000Y-109500000D02*
X161255794Y-109500000D01*
X159049000Y-109949000D02*
X159498000Y-109500000D01*
X159250000Y-98639000D02*
X160359000Y-98639000D01*
X156923450Y-114111000D02*
X157639000Y-114111000D01*
X158350000Y-111500000D02*
X159049000Y-110801000D01*
X155250000Y-110000000D02*
X155500000Y-110000000D01*
X164239000Y-99769000D02*
X166470000Y-102000000D01*
X158750000Y-113000000D02*
X158750000Y-111900000D01*
X166470000Y-102000000D02*
X166470000Y-107294206D01*
X156500000Y-110000000D02*
X156000000Y-110500000D01*
X158750000Y-111900000D02*
X158350000Y-111500000D01*
X158250000Y-113500000D02*
X158750000Y-113000000D01*
X160970000Y-99250000D02*
X160970000Y-99807794D01*
X162000000Y-101800000D02*
X161459000Y-101259000D01*
X161459000Y-109703206D02*
X161459000Y-108741000D01*
X159049000Y-110801000D02*
X159049000Y-109949000D01*
X159498000Y-109500000D02*
X160470000Y-109500000D01*
X156220000Y-100750000D02*
X156970000Y-100750000D01*
X156000000Y-110500000D02*
X156000000Y-111500000D01*
X161255794Y-109500000D02*
X161459000Y-109703206D01*
X157455000Y-99000000D02*
X157816000Y-98639000D01*
X155500000Y-110000000D02*
X156000000Y-110500000D01*
G04 #@! TO.N,VBUS*
X155616516Y-108633484D02*
X154274000Y-107290968D01*
X157187500Y-106000000D02*
X156262500Y-106000000D01*
X154274000Y-107290968D02*
X154274000Y-106088500D01*
X160345000Y-102125000D02*
X159470000Y-103000000D01*
X162733281Y-107400000D02*
X163133281Y-107000000D01*
X155983032Y-109000000D02*
X155616516Y-108633484D01*
X159750000Y-104350000D02*
X159750000Y-107150000D01*
X160820000Y-102600000D02*
X160345000Y-102125000D01*
X156500000Y-109000000D02*
X155983032Y-109000000D01*
X164470000Y-107000000D02*
X164470000Y-103000000D01*
X158250000Y-106000000D02*
X157187500Y-106000000D01*
X163133281Y-107000000D02*
X164470000Y-107000000D01*
X162710000Y-102600000D02*
X162000000Y-102600000D01*
X163110000Y-103000000D02*
X162710000Y-102600000D01*
X164470000Y-103000000D02*
X163110000Y-103000000D01*
X155250000Y-109000000D02*
X155616516Y-108633484D01*
X160345000Y-102125000D02*
X159970000Y-101750000D01*
X159750000Y-107150000D02*
X159400000Y-107150000D01*
X159400000Y-107150000D02*
X158250000Y-106000000D01*
X162000000Y-102600000D02*
X160820000Y-102600000D01*
X162000000Y-107400000D02*
X162733281Y-107400000D01*
X159470000Y-104070000D02*
X159750000Y-104350000D01*
X154274000Y-106088500D02*
X155312500Y-105050000D01*
X156262500Y-106000000D02*
X155312500Y-105050000D01*
X159970000Y-101750000D02*
X159970000Y-101250000D01*
X159470000Y-103000000D02*
X159470000Y-104070000D01*
G04 #@! TO.N,VBAT*
X155362500Y-107000000D02*
X157750000Y-107000000D01*
X155312500Y-106950000D02*
X155362500Y-107000000D01*
X159970000Y-99250000D02*
X159250000Y-99250000D01*
X159970000Y-99250000D02*
X159970000Y-100250000D01*
X159970000Y-100250000D02*
X159970000Y-100750000D01*
G04 #@! TO.N,Net-(D1-A)*
X155220000Y-99000000D02*
X156485000Y-99000000D01*
G04 #@! TO.N,Net-(D2-K)*
X156081000Y-103611000D02*
X155220000Y-102750000D01*
X158500000Y-103000000D02*
X157889000Y-103611000D01*
X155220000Y-102750000D02*
X155220000Y-102500000D01*
X157889000Y-103611000D02*
X156081000Y-103611000D01*
G04 #@! TO.N,Net-(USBC1-CC1)*
X160470000Y-108500000D02*
X160989000Y-107981000D01*
X161000000Y-106348000D02*
X161098000Y-106250000D01*
X161000000Y-106940008D02*
X161000000Y-106348000D01*
X160989000Y-106951008D02*
X161000000Y-106940008D01*
X161098000Y-106250000D02*
X162000000Y-106250000D01*
X160989000Y-107981000D02*
X160989000Y-106951008D01*
G04 #@! TO.N,Net-(U1-PROG)*
X156970000Y-102500000D02*
X157470000Y-103000000D01*
X156970000Y-101750000D02*
X156970000Y-102500000D01*
G04 #@! TO.N,Net-(U1-STAT)*
X155220000Y-101500000D02*
X155220000Y-100900057D01*
X155220000Y-100000000D02*
X155822057Y-100000000D01*
X156869000Y-100149000D02*
X156970000Y-100250000D01*
X155822057Y-100000000D02*
X155971057Y-100149000D01*
X155220000Y-100900057D02*
X155971057Y-100149000D01*
X155971057Y-100149000D02*
X156869000Y-100149000D01*
G04 #@! TO.N,Net-(SW1-B)*
X160769167Y-114708507D02*
X160751011Y-114690351D01*
X160751011Y-111451011D02*
X159850000Y-110550000D01*
X160751011Y-114690351D02*
X160751011Y-111451011D01*
G04 #@! TO.N,D-*
X161098000Y-105250000D02*
X161049000Y-105201000D01*
X161098000Y-104250000D02*
X162000000Y-104250000D01*
X162000000Y-105250000D02*
X161098000Y-105250000D01*
X161049000Y-105201000D02*
X161049000Y-104299000D01*
X161049000Y-104299000D02*
X161098000Y-104250000D01*
G04 #@! TO.N,D+*
X162902000Y-105750000D02*
X162951000Y-105701000D01*
X162951000Y-105701000D02*
X162951000Y-104799000D01*
X162951000Y-104799000D02*
X162902000Y-104750000D01*
X162902000Y-104750000D02*
X162000000Y-104750000D01*
X162000000Y-105750000D02*
X162902000Y-105750000D01*
G04 #@! TO.N,VSH*
X157650000Y-110550000D02*
X157650000Y-109651000D01*
X157198000Y-110550000D02*
X156849000Y-110899000D01*
X156849000Y-110899000D02*
X156849000Y-112349000D01*
X157650000Y-110550000D02*
X157198000Y-110550000D01*
X155196400Y-107401000D02*
X155028950Y-107233550D01*
X157650000Y-109651000D02*
X159750000Y-107551000D01*
X157650000Y-112450000D02*
X157650000Y-113100000D01*
X157650000Y-109651000D02*
X157650000Y-108650000D01*
X156950000Y-112450000D02*
X157650000Y-112450000D01*
X156849000Y-112349000D02*
X156950000Y-112450000D01*
X157650000Y-108650000D02*
X156401000Y-107401000D01*
X157650000Y-113100000D02*
X157250000Y-113500000D01*
X156401000Y-107401000D02*
X155196400Y-107401000D01*
G04 #@! TO.N,+3.3V*
X145072000Y-103500000D02*
X145072000Y-102240000D01*
X144250000Y-103500000D02*
X145072000Y-103500000D01*
X144072000Y-104260000D02*
X144072000Y-103678000D01*
X144072000Y-103678000D02*
X144250000Y-103500000D01*
G04 #@! TD*
M02*
